<svg width="458" height="458" viewBox="0 0 458 458" fill="none" xmlns="http://www.w3.org/2000/svg">
<rect x="62.5737" width="400" height="400" rx="20" transform="rotate(9 62.5737 0)" fill="#2196F3"/>
<path d="M227.861 234.92C223.648 234.253 220.535 230.886 221.061 227.566L208.309 225.546C206.661 235.952 214.524 245.879 225.841 247.671C237.158 249.464 247.71 242.456 249.359 232.048L236.607 230.028C236.081 233.349 232.075 235.587 227.861 234.92L227.861 234.92Z" fill="#242424"/>
<path d="M239.668 192.63L229.705 191.052L231.786 177.911L185.996 170.66L179.937 208.914L225.727 216.166L227.685 203.806L237.648 205.384L235.69 217.744L281.479 224.996L287.539 186.743L241.75 179.49L239.668 192.63ZM214.995 201.393L194.709 198.18L196.728 185.431L217.014 188.644L214.995 201.393ZM252.479 194.26L272.765 197.473L270.746 210.222L250.46 207.009L252.479 194.26Z" fill="#242424"/>
<path d="M202.795 338.149L219.802 340.842L217.782 353.595L200.775 350.901L202.795 338.149Z" fill="#242424"/>
<path d="M291.51 360.335L296.304 330.063C300.44 303.953 274.341 278.835 253.623 266.487C266.77 262.437 278.499 254.449 287.66 243.4L307.114 246.481C317.962 248.199 328.178 240.776 329.895 229.933L333.988 204.091C335.708 193.244 328.284 183.027 317.439 181.31L307.82 179.786C306.07 141.674 282.16 109.701 248.535 104.376C214.91 99.0501 182.291 122.069 168.848 157.775L159.23 156.251C148.385 154.533 138.169 161.958 136.451 172.801L132.358 198.643C130.641 209.486 138.063 219.705 148.908 221.422L168.365 224.504C173.664 237.84 182.351 249.063 193.602 256.977C170.08 262.321 137.499 278.142 133.363 304.254L128.568 334.529L153.108 338.416L152.119 344.66L164.871 346.679L170.718 309.768C171.002 307.971 172.694 306.743 174.487 307.027L256.341 319.992C258.134 320.276 259.359 321.969 259.075 323.762L253.229 360.674L265.981 362.694L266.97 356.45L291.51 360.335ZM158.767 209.911L150.926 208.669C147.113 208.066 144.503 204.473 145.107 200.661L149.2 174.818C149.804 171.006 153.396 168.396 157.209 169L165.05 170.242L164.982 170.675C164.486 172.856 164.037 175.061 163.681 177.31C163.323 179.569 163.066 181.808 162.866 184.03L158.767 209.911ZM238.276 275.985C236.835 285.081 228.26 291.315 219.153 289.873C210.052 288.432 203.82 279.859 205.262 270.756L206.33 264.012C211.394 266.137 216.798 267.714 222.521 268.62C228.245 269.527 233.871 269.702 239.344 269.241L238.276 275.985ZM224.543 255.87C192.913 250.86 172.723 221.24 175.678 185.686L177.64 173.299C177.806 172.577 177.964 171.848 178.147 171.132C192.33 170.923 203.574 164.76 210.887 153.176C218.703 160.02 229.07 162.592 238.71 164.118C248.002 165.59 259.164 166.404 269.134 161.94C272.371 175.479 281.203 184.981 294.851 189.618C294.804 190.353 294.728 191.097 294.665 191.834L292.703 204.22C284.526 238.948 256.169 260.879 224.542 255.869L224.543 255.87ZM317.15 227.91C316.547 231.721 312.952 234.332 309.139 233.729L301.302 232.487L305.401 206.604C305.894 204.427 306.344 202.22 306.701 199.961C307.058 197.712 307.312 195.476 307.516 193.249L307.585 192.815L315.423 194.057C319.235 194.661 321.848 198.253 321.244 202.066L317.15 227.91Z" fill="#242424"/>
</svg>
