<svg width="100" height="100" viewBox="0 0 100 100" fill="none" xmlns="http://www.w3.org/2000/svg">
<rect width="100" height="100" rx="20" fill="#2196F3"/>
<path d="M50.0004 51.5428C48.9341 51.5428 48.0337 50.8333 48.0337 49.9929H44.8059C44.8059 52.6267 47.1357 54.7703 50.0004 54.7703C52.8648 54.7703 55.1964 52.6272 55.1964 49.9929H51.9686C51.9686 50.8333 51.0671 51.5428 50.0003 51.5428H50.0004Z" fill="#242424"/>
<path d="M51.2618 40.6386H48.74V37.3125L37.1499 37.3128V46.9955H48.74V43.8669H51.2618V46.9955H62.8519L62.8521 37.3128H51.262L51.2618 40.6386ZM45.5122 43.7675H40.3775V40.5405H45.5122V43.7675ZM54.489 40.5402H59.6236V43.7672H54.489V40.5402Z" fill="#242424"/>
<path d="M47.8484 78.0125H52.153V81.2403H47.8484V78.0125Z" fill="#242424"/>
<path d="M70.6216 80.0213V72.3589C70.6216 65.7501 63.195 60.5686 57.5963 58.3299C60.684 56.8156 63.2679 54.3846 65.0978 51.298H70.022C72.7676 51.298 75 49.0656 75 46.321V39.7799C75.0005 37.0343 72.7676 34.8019 70.0225 34.8019H67.5878C65.6652 25.4596 58.5109 18.5 49.9999 18.5C41.4888 18.5 34.3348 25.4596 32.4119 34.8019L29.9775 34.8017C27.2324 34.8017 25 37.0346 25 39.7792V46.3202C25 49.0648 27.2324 51.2977 29.9775 51.2977H34.9022C36.7322 54.3833 39.3161 56.8148 42.4037 58.329C36.8048 60.5684 29.3784 65.7491 29.3784 72.3586V80.0216H35.59V81.6021H38.8177V72.2591C38.8177 71.8044 39.1874 71.435 39.6413 71.435H60.3599C60.8138 71.435 61.1824 71.8052 61.1824 72.2591V81.6021H64.4102V80.0216L70.6216 80.0213ZM31.9617 48.0698H29.9768C29.0118 48.0698 28.2268 47.2849 28.2268 46.3198V39.7787C28.2268 38.8136 29.0117 38.0287 29.9768 38.0287H31.9617V38.1384C31.9246 38.6963 31.8999 39.2584 31.8999 39.8276C31.8999 40.3993 31.9241 40.9622 31.9617 41.5188V48.0698ZM54.1782 61.2752C54.1782 63.5776 52.3045 65.4524 49.9995 65.4524C47.6959 65.4524 45.8218 63.5793 45.8218 61.2752V59.5684C47.1553 59.8949 48.5512 60.073 50 60.073C51.4488 60.073 52.8448 59.8961 54.1782 59.5684L54.1782 61.2752ZM50.0005 56.8455C41.9945 56.8455 35.8507 50.3213 35.1899 41.4265V38.2914C35.2028 38.1064 35.2131 37.9202 35.2303 37.7363C38.7242 37.13 41.2596 35.1686 42.6123 32.0223C44.8098 33.4065 47.4704 33.636 49.9103 33.636C52.2623 33.636 55.0503 33.4004 57.3376 31.9082C58.6662 35.1247 61.2188 37.1257 64.77 37.7367C64.7872 37.9202 64.7975 38.1069 64.8109 38.2913V41.4265C64.1499 50.3212 58.0056 56.8455 50.0003 56.8455L50.0005 56.8455ZM71.7738 46.3199C71.7738 47.2845 70.9884 48.0699 70.0233 48.0699H68.0394V41.5185C68.076 40.9617 68.1007 40.399 68.1007 39.8273C68.1007 39.2581 68.076 38.6959 68.0394 38.1381V38.0283H70.0233C70.9884 38.0283 71.7738 38.8132 71.7738 39.7784V46.3199Z" fill="#242424"/>
</svg>
