<svg width="1745" height="841" viewBox="0 0 1745 841" fill="none" xmlns="http://www.w3.org/2000/svg">
<rect width="1745" height="841" rx="12" fill="white"/>
<path fill-rule="evenodd" clip-rule="evenodd" d="M1128.34 287.991C1127.67 286.566 1127.37 285.849 1127.01 285.165C1117.37 266.819 1107.74 248.474 1097.99 230.128C1097.02 228.288 1097.14 227.203 1098.48 225.616C1113.83 207.692 1128.99 189.668 1144.37 171.819C1144.91 171.189 1145.39 170.522 1145.6 169.399C1141.13 170.562 1136.67 171.712 1132.18 172.895C1113.65 177.803 1094.97 182.687 1076.62 187.67C1074.89 188.134 1074.11 187.631 1073.24 186.198C1062.73 168.62 1052.13 150.994 1041.49 133.64C1040.95 132.73 1040.36 131.847 1039.2 131.086C1038.34 135.772 1037.48 140.433 1036.64 145.118C1033.69 161.654 1030.74 178.091 1027.81 194.701C1027.49 196.484 1027.05 198.271 1026.9 200.056C1026.75 201.762 1025.87 202.391 1024.32 202.882C1002.47 209.749 980.666 216.666 958.838 223.583C957.881 223.883 956.941 224.28 955.911 225.209C973.77 232.3 991.629 239.39 1009.74 246.604C1009.08 247.127 1008.64 247.534 1008.16 247.844C996.994 255.058 985.808 262.273 974.671 269.512C973.334 270.384 972.277 270.508 970.776 269.831C957.432 263.832 943.988 257.932 930.594 251.982C924.591 249.304 919.209 245.759 915.017 240.602C905.517 229 907.402 215.811 920.052 207.63C924.194 204.977 928.907 203.019 933.595 201.481C955.001 194.515 976.506 187.797 997.838 181.053C999.638 180.481 1000.47 179.677 1000.81 177.731C1003.69 161.171 1006.64 144.511 1009.64 128.149C1011.24 119.298 1012.09 110.249 1016.39 102.118C1018.04 98.9938 1020.01 95.9445 1022.39 93.3414C1030.93 83.871 1042.81 83.524 1051.91 92.5282C1054.96 95.5776 1057.57 99.1475 1059.82 102.841C1069.74 119.03 1079.52 135.318 1089.34 151.681C1090.49 153.607 1091.53 153.994 1093.66 153.433C1117.59 147.012 1141.53 140.69 1165.59 134.369C1170.55 133.062 1175.53 132.589 1180.62 133.538C1191.66 135.601 1196.49 144 1192.75 154.685C1191.05 159.544 1188.11 163.635 1184.81 167.527C1168.09 187.187 1151.33 206.946 1134.71 226.531C1133.34 228.137 1133.31 229.283 1134.26 231.092C1144.28 249.959 1154.2 268.775 1164.27 287.865C1166.66 292.377 1168.49 297.087 1168.54 302.269C1168.66 314.069 1160.01 323.738 1148.27 325.473C1141.7 326.433 1135.6 325.03 1129.42 323.13C1114.42 318.494 1099.41 313.933 1084.28 309.396C1082.88 308.98 1082.35 308.427 1082.1 306.927C1080.37 296.341 1078.48 285.78 1076.64 275.194C1076.6 274.904 1076.68 274.594 1076.73 273.944C1093.87 278.679 1110.96 283.34 1128.57 288.224" fill="#E25A1C"/>
<path fill-rule="evenodd" clip-rule="evenodd" d="M1098.58 442.937C1085.03 442.918 1071.54 442.851 1057.9 442.91C1056.1 442.91 1055.1 442.397 1054.1 440.875C1038.08 416.48 1021.86 392.036 1005.98 367.74C1005.47 366.967 1004.93 366.22 1004.02 364.914C1000.57 391.193 997.17 416.976 993.772 442.759H958.302C958.719 439.313 959.089 435.966 959.525 432.644C962.973 406.117 966.47 379.838 969.943 353.312C973.267 328.024 976.566 302.737 979.939 277.45C980.036 276.704 980.539 275.744 981.149 275.348C993.353 267.389 1005.61 259.506 1017.86 251.622C1018.04 251.506 1018.29 251.496 1018.92 251.312C1015.22 279.574 1011.55 307.589 1007.85 335.603C1008 335.7 1008.14 335.806 1008.29 335.903C1027.51 314.632 1046.74 293.262 1066.33 271.693C1066.89 274.966 1067.39 277.767 1067.87 280.569C1069.25 288.576 1070.58 296.633 1072.04 304.641C1072.34 306.257 1071.9 307.244 1070.83 308.385C1058.4 321.375 1046.02 334.416 1033.62 347.555C1033.08 348.128 1032.57 348.718 1031.95 349.397C1032.34 350.024 1032.68 350.637 1033.08 351.197C1054.44 381.194 1075.74 411.192 1097.07 441.19C1097.46 441.733 1098.02 442.159 1098.5 442.642V443.116" fill="#3C3A3E"/>
<path fill-rule="evenodd" clip-rule="evenodd" d="M679.388 363.605C678.845 360.853 678.458 356.787 677.227 352.994C671.274 334.673 652.498 324.732 633.076 329.17C611.72 334.128 596.366 350.912 594.382 372.803C592.745 388.917 601.426 404.536 617.549 410.238C630.546 414.923 643.097 412.965 654.755 405.998C670.158 396.776 678.492 383.066 679.559 363.605H679.388ZM585.628 431.781C584.582 439.665 583.575 447.078 582.602 454.515C581.305 464.382 579.998 474.274 578.758 484.265C578.614 485.418 578.264 485.931 577.024 485.921C567.276 485.884 557.528 485.894 547.755 485.874C547.532 485.874 547.309 485.757 546.785 485.603C547.375 480.943 547.948 476.257 548.559 471.596C550.709 455.234 552.85 438.872 555.033 422.509C557.538 403.767 559.497 385.074 562.697 366.481C568.352 333.508 596.431 305.246 629.172 298.056C648.197 293.941 666.378 295.848 682.997 306.56C699.566 317.22 709.041 332.839 711.273 352.176C714.349 379.695 704.204 402.503 684.733 421.592C671.885 434.013 656.456 441.896 638.846 444.574C620.565 447.326 603.376 444.284 587.997 433.517C587.434 433.12 586.824 432.773 585.857 432.163" fill="#3C3A3E"/>
<path fill-rule="evenodd" clip-rule="evenodd" d="M569.258 275.595C558.344 283.727 547.802 291.561 537.26 299.42C535.556 296.743 534.036 294.065 532.25 291.561C527.661 285.14 521.956 280.355 513.672 279.785C506.776 279.299 500.873 281.565 496.185 286.652C491.993 291.189 491.447 297.66 495.361 302.792C499.677 308.444 504.39 313.799 509.227 319.03C517.239 327.707 525.598 336.037 533.535 344.813C540.753 352.746 546.532 361.622 548.318 372.579C550.441 385.471 547.864 397.619 541.77 409.023C530.484 429.972 512.749 442.243 489.185 445.962C478.817 447.635 468.499 447.308 458.428 444.333C445.009 440.391 435.658 431.59 429.655 419.294C427.535 414.906 425.91 410.27 424 405.559C435.732 399.287 447.167 393.164 458.726 386.991C459.123 387.95 459.413 388.753 459.782 389.519C461.759 393.461 463.379 397.651 465.81 401.295C473.077 412.08 484.785 415.352 496.567 410.022C499.618 408.646 502.569 406.725 505.075 404.493C512.714 397.701 514.153 388.23 508.498 379.702C505.248 374.793 501.18 370.38 497.212 365.992C487.737 355.481 477.865 345.292 468.687 334.507C462.312 327.119 457.972 318.542 456.583 308.724C455.082 297.915 457.242 287.751 462.858 278.727C476.823 256.142 497.088 244.514 523.876 245.258C539.18 245.811 551.409 252.968 560.834 264.868C563.637 268.389 566.266 272.033 569.119 275.851" fill="#3C3A3E"/>
<path fill-rule="evenodd" clip-rule="evenodd" d="M828.212 395.834C826.429 409.444 824.74 422.361 823.003 435.252C822.907 435.912 822.393 436.802 821.84 437.054C795.3 449.301 760.574 447.591 738.995 422.948C727.337 409.71 722.45 393.942 723.17 376.588C724.864 336.178 758.391 300.726 798.574 295.768C822.014 292.892 842.477 299.214 858.352 317.436C869.166 329.832 874.177 344.706 873.433 361.069C872.949 371.878 871.252 382.613 869.91 393.298C868.001 408.52 865.917 423.791 863.908 438.914C863.831 439.444 863.724 439.987 863.598 440.676H832.097C832.513 437.181 832.9 433.76 833.347 430.338C835.634 412.761 838.159 395.135 840.168 377.533C841.418 366.575 840.632 355.692 835.604 345.552C830.271 334.768 821.342 329.041 809.56 327.801C785.202 325.223 761.936 342.131 756.975 365.98C753.552 381.797 758.952 396.969 771.56 405.398C783.838 413.555 796.86 413.579 810.254 408.299C817.05 405.621 822.805 401.357 828.312 395.63" fill="#3C3A3E"/>
<path fill-rule="evenodd" clip-rule="evenodd" d="M962.154 299.891C960.711 310.849 959.277 321.633 957.838 332.616C951.141 332.616 944.593 332.578 938.045 332.626C932.737 332.665 927.9 336.096 926.288 341.055C925.668 342.991 925.437 345.071 925.164 347.104C921.84 372.391 918.541 397.43 915.242 422.47C914.409 428.816 913.605 435.163 912.772 441.609H879.782C880.393 436.774 880.973 432.089 881.583 427.403C883.724 411.09 885.874 394.678 888.032 378.564C889.903 364.458 891.579 350.302 893.787 336.171C896.739 317.329 915.49 300.471 934.466 299.727C943.544 299.331 952.647 299.66 961.998 299.66" fill="#3C3A3E"/>
<path d="M1138.26 442.937V429.054H1138.19L1132.73 442.937H1131L1125.54 429.054H1125.45V442.937H1122.72V426.302H1126.97L1131.93 438.946L1136.81 426.302H1141.03V442.937H1138.26ZM1114.1 428.534V442.937H1111.38V428.534H1106.17V426.305H1119.34V428.534H1114.13" fill="#3C3A3E"/>
<path d="M613.161 252.291H621.321L619.392 239.945L613.161 252.291ZM622.611 260.274H609.043L604.728 268.728H595.104L616.311 229.062H625.588L632.806 268.728H623.901L622.621 260.274" fill="#3C3A3E"/>
<path d="M671.202 237.169H666.366L664.739 246.317H669.575C672.502 246.317 674.809 244.4 674.809 240.788C674.809 238.396 673.355 237.169 671.188 237.169H671.202ZM659.495 229.186H672.195C678.842 229.186 683.48 233.153 683.48 239.945C683.48 248.523 677.428 254.275 668.796 254.275H663.315L660.735 268.778H652.451L659.445 229.112" fill="#3C3A3E"/>
<path d="M711.633 252.291H719.794L717.866 239.945L711.633 252.291ZM721.059 260.274H707.491L703.175 268.728H693.551L714.759 229.062H724.035L731.253 268.728H722.349L721.069 260.274" fill="#3C3A3E"/>
<path d="M773.643 267.414C770.841 268.694 767.765 269.457 764.664 269.457C754.172 269.457 747.599 261.598 747.599 251.756C747.599 239.162 758.19 228.576 770.791 228.576C773.941 228.576 776.794 229.332 779.125 230.609L777.962 240.104C776.218 238.178 773.398 236.832 769.925 236.832C762.707 236.832 756.283 243.352 756.283 250.913C756.283 256.665 759.904 261.177 765.609 261.177C769.107 261.177 772.48 259.831 774.762 257.979L773.658 267.399" fill="#3C3A3E"/>
<path d="M825.732 252.787H808.493L805.69 268.728H797.43L804.425 229.062H812.71L809.932 244.73H827.171L829.973 229.062H838.258L831.263 268.728H822.979L825.757 252.787" fill="#3C3A3E"/>
<path d="M855.497 268.654L862.492 228.988H884.468L883.072 236.97H869.38L867.983 244.656H880.559L879.162 252.639H866.587L865.19 260.621H878.882L877.486 268.604H855.509" fill="#3C3A3E"/>
<path d="M931.7 628.39C937.7 640.18 947.3 645.99 960.75 645.99C975.19 645.99 980.34 638.35 980.34 630.88C980.34 625.73 978.51 622.25 973.7 619.09C968.88 615.77 965.4 614.28 956.77 611.09C946.14 607.09 940 604.09 933.36 598.8C926.72 593.32 923.57 585.8 923.57 576.06C923.456 571.762 924.323 567.494 926.106 563.581C927.889 559.668 930.541 556.214 933.86 553.48C940.86 547.67 949.3 544.85 959.42 544.85C975.19 544.85 987.14 551.16 995.11 563.61L980.34 573.78C975.86 566.97 969.05 563.48 959.75 563.48C950.62 563.48 943.98 568.63 943.98 575.77C943.98 580.58 945.98 582.91 948.8 585.77C950.62 587.1 955.27 589.09 957.43 590.25L963.43 592.57L970.23 595.23C981.23 599.71 988.99 604.53 993.8 609.67C998.61 614.81 1001.11 621.79 1001.11 630.42C1001.11 650.84 987 664.62 960.6 664.62C939.19 664.62 923.42 654.62 916.12 638.22L931.7 628.39Z" fill="#380D09"/>
<path d="M1085.25 590.71L1073 603.49C1070.31 600.551 1067.02 598.217 1063.36 596.643C1059.7 595.069 1055.75 594.291 1051.76 594.36C1048.34 594.278 1044.94 594.899 1041.77 596.184C1038.6 597.469 1035.73 599.39 1033.33 601.83C1028.64 606.95 1026.03 613.644 1026.03 620.59C1026.03 627.536 1028.64 634.23 1033.33 639.35C1035.73 641.79 1038.6 643.712 1041.77 644.996C1044.94 646.281 1048.34 646.902 1051.76 646.82C1055.75 646.889 1059.7 646.111 1063.36 644.537C1067.02 642.963 1070.31 640.629 1073 637.69L1085.29 650.47C1076.29 660.1 1065.2 664.91 1051.76 664.91C1038.97 664.91 1028.18 660.76 1019.39 652.29C1010.6 643.82 1006.27 633.2 1006.27 620.59C1006.27 607.98 1010.59 597.51 1019.39 589.05C1028.19 580.59 1038.97 576.27 1051.76 576.27C1065.16 576.27 1076.28 581.08 1085.25 590.71Z" fill="#380D09"/>
<path d="M1124.88 611.62C1139 610.3 1144 608.47 1144 602C1144 596.85 1139.36 592.87 1130.06 592.87C1121.1 592.87 1113.63 596.52 1107.65 603.82L1095.37 593.36C1103.5 581.91 1114.95 576.27 1129.73 576.27C1150.48 576.27 1163.43 586.27 1163.43 603.32V640.32C1163.43 646.13 1165.58 646.8 1170.43 646.8H1170.93V662.23C1168.93 663.4 1165.78 664.06 1161.63 664.06C1157.15 664.06 1153.63 662.73 1151.01 660.06C1149.61 658.481 1148.59 656.609 1148.01 654.58C1142.2 661.38 1132.74 664.87 1119.62 664.87C1101.2 664.87 1088.75 654.74 1088.75 639.47C1088.7 622.41 1100.15 613.78 1124.88 611.62ZM1122.56 648C1135.84 648 1143.97 642 1143.97 631.4V622.1C1142.82 623.264 1141.4 624.12 1139.83 624.59C1136.01 625.92 1133.52 626.25 1125.55 627.08C1113.93 628.41 1108.12 632.08 1108.12 637.87C1108.12 644.33 1113.43 648 1122.56 648Z" fill="#380D09"/>
<path d="M1175.84 546.88H1195.76V635.2C1195.76 643.33 1198.42 646.82 1205.76 646.82C1207.78 646.885 1209.8 646.659 1211.76 646.15V663.91C1208.66 664.666 1205.48 665.003 1202.29 664.91C1184.7 664.91 1175.9 655.91 1175.9 637.85L1175.84 546.88Z" fill="#380D09"/>
<path d="M1252.71 611.62C1266.82 610.3 1271.8 608.47 1271.8 602C1271.8 596.85 1267.16 592.87 1257.86 592.87C1248.9 592.87 1241.43 596.52 1235.45 603.82L1223.17 593.36C1231.3 581.91 1242.75 576.27 1257.53 576.27C1278.28 576.27 1291.23 586.27 1291.23 603.32V640.32C1291.23 646.13 1293.38 646.8 1298.23 646.8H1298.73V662.23C1296.73 663.4 1293.58 664.06 1289.43 664.06C1284.95 664.06 1281.43 662.73 1278.81 660.06C1277.41 658.484 1276.38 656.61 1275.81 654.58C1270 661.38 1260.54 664.87 1247.42 664.87C1229 664.87 1216.55 654.74 1216.55 639.47C1216.53 622.41 1228 613.78 1252.71 611.62ZM1250.39 648C1263.67 648 1271.8 642 1271.8 631.4V622.1C1270.65 623.266 1269.22 624.123 1267.65 624.59C1263.84 625.92 1261.35 626.25 1253.38 627.08C1241.76 628.41 1235.95 632.08 1235.95 637.87C1236 644.33 1241.26 648 1250.39 648Z" fill="#380D09"/>
<path fill-rule="evenodd" clip-rule="evenodd" d="M761.55 580.83C763.4 583.38 779 588.19 802.27 593.2C825.54 597.66 849.74 615.27 868.56 609.84C881.29 606.16 895.1 573.37 895.1 568.5V568C895.1 564.6 892.55 561.87 888.22 559.6C870.47 550.53 867.11 547.19 860.53 549C826.37 558.43 766.06 553.61 761.55 580.83Z" fill="#380D09"/>
<path fill-rule="evenodd" clip-rule="evenodd" d="M761.55 647.41C763.4 650 779 654.77 802.27 659.79C828.27 664.53 850.88 679.98 869.71 674.54C882.44 670.86 895.1 639.96 895.1 635.08V634.6C895.1 631.21 892.55 628.47 888.22 626.21C874.68 619.01 856.79 611.08 850.22 612.89C816 622.3 770.26 624.37 761.55 647.41Z" fill="#380D09"/>
<path fill-rule="evenodd" clip-rule="evenodd" d="M761.36 595.14V595.62C761.35 595.46 761.35 595.3 761.36 595.14V595.14Z" fill="#555555"/>
<path fill-rule="evenodd" clip-rule="evenodd" d="M869.66 514.78C838.2 523.87 788.29 529 761.4 529V580.35C761.409 580.527 761.475 580.695 761.59 580.83C779.94 580.83 836.59 574.83 870.77 565.43C876.731 563.913 882.576 561.971 888.26 559.62C892.44 557.74 895.14 555.76 895.14 553.7V501.91C895.1 506.79 882.39 511.11 869.66 514.78Z" fill="#DE3423"/>
<path fill-rule="evenodd" clip-rule="evenodd" d="M869.66 581.37C850.83 586.8 825.42 590.84 802.27 593.2C786.73 594.79 772.21 595.62 761.4 595.62V646.93C761.409 647.107 761.475 647.275 761.59 647.41C779.94 647.41 836.59 641.41 870.77 632.02C876.73 630.498 882.574 628.557 888.26 626.21C892.44 624.32 895.14 622.35 895.14 620.29V568.5C895.1 573.37 882.39 577.69 869.66 581.37Z" fill="#DE3423"/>
<path fill-rule="evenodd" clip-rule="evenodd" d="M869.66 648C850.83 653.43 825.42 657.46 802.27 659.83C786.71 661.42 772.17 662.25 761.36 662.25V714C779.52 714 836.46 708.05 870.73 698.61C883.36 695.13 895.1 691.17 895.1 686.87V635.08C895.1 640 882.39 644.28 869.66 648Z" fill="#DE3423"/>
</svg>
