<?xml version="1.0" standalone="no"?>
<!DOCTYPE svg PUBLIC "-//W3C//DTD SVG 20010904//EN"
 "http://www.w3.org/TR/2001/REC-SVG-20010904/DTD/svg10.dtd">
<svg version="1.0" xmlns="http://www.w3.org/2000/svg"
 width="805.000000pt" height="805.000000pt" viewBox="0 0 805.000000 805.000000"
 preserveAspectRatio="xMidYMid meet">
<metadata>
Created by potrace 1.11, written by Peter Selinger 2001-2013
</metadata>
<g transform="translate(0.000000,805.000000) scale(0.100000,-0.100000)"
fill="#000000" stroke="none">
<path d="M3830 7239 c-25 -5 -61 -11 -80 -14 -55 -7 -80 -13 -165 -39 -637
-192 -1128 -745 -1320 -1486 l-27 -106 -153 -2 c-212 -2 -293 -24 -405 -112
-81 -63 -127 -127 -165 -230 l-28 -75 -1 -415 c0 -398 1 -418 22 -485 48 -157
158 -273 317 -335 57 -23 73 -24 365 -28 l305 -4 45 -71 c147 -231 389 -461
624 -591 l89 -50 -44 -20 c-309 -141 -524 -271 -728 -441 -297 -247 -464 -500
-537 -810 -4 -16 -9 -235 -11 -485 l-4 -455 315 0 c207 0 316 -3 317 -10 1 -5
2 -41 2 -80 l2 -69 163 -1 c138 0 162 2 163 15 0 8 1 228 1 489 l0 474 28 29
28 28 1076 0 c767 0 1082 -3 1099 -11 14 -6 30 -22 36 -36 8 -16 11 -174 11
-506 l0 -483 153 2 c83 1 157 2 164 3 7 1 11 24 10 69 0 37 2 72 5 78 4 6 124
9 317 9 l311 0 0 435 c-1 383 -3 446 -20 525 -47 230 -162 429 -368 639 -233
237 -500 415 -882 588 l-55 25 53 27 c137 70 301 193 429 323 83 84 213 249
255 323 l23 40 278 1 c152 1 280 2 285 3 4 1 27 6 52 10 125 23 286 148 342
268 49 103 54 154 53 580 -1 379 -2 395 -24 462 -44 137 -137 245 -261 305
-85 41 -156 53 -317 53 l-152 1 -6 31 c-14 67 -68 246 -101 335 -96 258 -261
527 -440 720 -253 272 -587 470 -905 535 -41 8 -87 18 -104 21 -48 11 -386 13
-435 4z m978 -1416 c53 -108 145 -233 207 -284 11 -9 31 -27 45 -39 41 -37
129 -91 204 -125 74 -34 207 -75 244 -75 30 0 33 -29 28 -275 -5 -196 -8 -242
-22 -305 -3 -14 -8 -38 -11 -55 -35 -229 -161 -516 -320 -732 -89 -121 -324
-343 -363 -343 -6 0 -10 -3 -10 -7 0 -10 -42 -34 -150 -88 -158 -78 -250 -106
-440 -136 -75 -12 -288 -14 -352 -4 -24 4 -56 9 -73 11 -183 29 -366 100 -535
207 -36 23 -67 44 -70 47 -3 3 -36 31 -75 62 -62 50 -141 131 -217 223 -42 50
-133 195 -176 280 -84 165 -145 354 -179 555 -20 118 -27 534 -9 549 6 5 27
12 47 15 60 9 207 63 276 101 169 93 295 222 384 395 18 36 34 67 36 69 1 2
29 -10 60 -27 87 -46 207 -87 288 -99 17 -2 36 -6 44 -9 55 -18 478 -27 611
-12 91 11 174 27 221 43 21 8 40 14 42 14 3 0 34 10 72 24 17 6 57 25 90 43
33 18 63 33 67 33 4 1 20 -25 36 -56z m-2634 -563 c22 0 27 -4 22 -16 -4 -9
-6 -85 -5 -168 0 -83 2 -304 3 -491 l1 -340 -119 -3 c-102 -2 -124 0 -160 18
-45 22 -76 57 -93 106 -14 41 -14 727 0 769 33 98 100 132 251 128 39 -1 84
-2 100 -3z m3981 -22 c39 -21 61 -45 79 -88 11 -28 14 -104 14 -393 0 -225 -4
-371 -11 -393 -14 -47 -69 -101 -115 -113 -20 -6 -85 -11 -144 -11 -96 0 -108
2 -109 18 -1 32 0 607 2 804 l1 197 67 3 c95 4 181 -5 216 -24z m-2435 -2193
c106 -19 183 -23 345 -20 164 3 234 8 275 20 8 3 33 7 55 11 22 3 44 7 50 7
12 2 14 -181 2 -248 -22 -124 -122 -251 -244 -307 -63 -29 -76 -32 -173 -32
-96 0 -110 3 -170 31 -80 37 -137 86 -183 155 -53 82 -69 144 -72 277 -1 64 0
119 1 122 2 4 21 3 41 -2 21 -4 54 -11 73 -14z"/>
<path d="M2723 4843 l0 -493 589 0 c553 0 588 1 589 18 0 9 1 80 2 157 l2 140
128 1 127 1 0 -158 0 -159 590 0 590 0 -2 493 -3 492 -585 0 -585 0 -3 -170
-2 -170 -83 2 c-45 1 -103 2 -128 2 l-46 1 0 161 c-1 88 -4 163 -8 167 -4 4
-269 7 -589 7 l-583 0 0 -492z m848 148 c2 -41 -2 -305 -4 -308 -4 -4 -121 -5
-339 -4 l-178 1 0 163 0 164 260 0 c231 0 260 -2 261 -16z m1439 -148 l0 -163
-102 0 c-57 -1 -141 -1 -188 -1 -47 0 -119 0 -160 0 l-75 1 2 132 c1 73 2 147
2 164 l1 31 260 0 260 0 0 -164z"/>
<path d="M3504 4041 c-8 -8 9 -108 28 -158 23 -62 91 -158 138 -193 18 -14 38
-30 44 -36 19 -18 122 -65 175 -79 70 -18 218 -17 289 3 66 18 150 61 206 105
89 71 165 210 169 311 l2 51 -160 0 -160 0 -10 -31 c-35 -104 -176 -157 -286
-106 -24 12 -51 27 -60 34 -19 15 -49 71 -49 90 0 10 -35 13 -161 13 -88 0
-162 -2 -165 -4z"/>
<path d="M3810 1025 l0 -165 220 0 220 0 0 165 0 165 -220 0 -220 0 0 -165z"/>
</g>
</svg>
